<svg xmlns="http://www.w3.org/2000/svg" width="512" height="512" fill="none" viewBox="0 0 512 512">
  <circle cx="256" cy="256" r="256" fill="#fff"/>
  <path fill="#000" d="M75.125 223.5c0-7.417 1.417-14.375 4.25-20.875s6.667-12.167 11.5-17C95.792 180.708 101.5 176.833 108 174s13.458-4.25 20.875-4.25h82.25v35.875h-82.25c-2.5 0-4.833.458-7 1.375a17.949 17.949 0 00-5.75 3.875c-1.583 1.583-2.833 3.458-3.75 5.625-.917 2.167-1.375 4.5-1.375 7s.458 4.875 1.375 7.125a19.058 19.058 0 003.75 5.75 19.058 19.058 0 005.75 3.75c2.167.917 4.5 1.375 7 1.375h35.875c7.417 0 14.375 1.417 20.875 4.25 6.583 2.75 12.292 6.583 17.125 11.5 4.917 4.833 8.75 10.542 11.5 17.125 2.833 6.5 4.25 13.458 4.25 20.875s-1.417 14.375-4.25 20.875c-2.75 6.5-6.583 12.208-11.5 17.125-4.833 4.833-10.542 8.667-17.125 11.5-6.5 2.833-13.458 4.25-20.875 4.25H85.125v-35.875h79.625c2.5 0 4.833-.458 7-1.375s4.042-2.167 5.625-3.75a17.949 17.949 0 003.875-5.75c.917-2.167 1.375-4.5 1.375-7s-.458-4.833-1.375-7a16.566 16.566 0 00-3.875-5.625 16.566 16.566 0 00-5.625-3.875c-2.167-.917-4.5-1.375-7-1.375h-35.875c-7.417 0-14.375-1.417-20.875-4.25s-12.208-6.667-17.125-11.5c-4.833-4.917-8.667-10.625-11.5-17.125-2.833-6.583-4.25-13.583-4.25-21zm334.635 74.25c0 7.417-1.417 14.417-4.25 21-2.75 6.5-6.583 12.208-11.5 17.125-4.833 4.833-10.542 8.667-17.125 11.5-6.5 2.75-13.458 4.125-20.875 4.125-6.667 0-13.083-1.167-19.25-3.5-6.083-2.333-11.583-5.75-16.5-10.25-4.917 4.5-10.458 7.917-16.625 10.25s-12.583 3.5-19.25 3.5c-7.417 0-14.417-1.375-21-4.125-6.5-2.833-12.208-6.667-17.125-11.5-4.833-4.917-8.667-10.625-11.5-17.125-2.75-6.583-4.125-13.583-4.125-21v-128h35.875v128c0 2.5.458 4.875 1.375 7.125a19.058 19.058 0 003.75 5.75 19.058 19.058 0 005.75 3.75c2.167.917 4.5 1.375 7 1.375s4.833-.458 7-1.375 4.042-2.167 5.625-3.75a17.949 17.949 0 003.875-5.75c.917-2.25 1.375-4.625 1.375-7.125v-128h35.875v128c0 2.5.458 4.875 1.375 7.125a19.058 19.058 0 003.75 5.75 19.058 19.058 0 005.75 3.75c2.167.917 4.5 1.375 7 1.375s4.833-.458 7-1.375 4.042-2.167 5.625-3.75a17.949 17.949 0 003.875-5.75c1-2.25 1.5-4.625 1.5-7.125v-128h35.75v128z"/>
  <path fill="#000" d="M79.375 202.625l-.917-.4.917.4zm11.5-17l-.707-.707.707.707zm120.25-15.875h1v-1h-1v1zm0 35.875v1h1v-1h-1zm-95 5.25l-.707-.707.707.707zm-3.75 19.75l-.926.377.005.013.921-.39zm3.75 5.75l-.725.689.018.018.018.018.689-.725zm69.5 9.375l-.4.917.007.003.008.003.385-.923zm17.125 11.5l-.713.701.006.006.006.006.701-.713zm11.5 17.125l-.923.385.003.008.003.007.917-.4zm0 41.75l-.917-.4-.004.01.921.39zm-11.5 17.125l.707.707-.707-.707zm-17.125 11.5l-.395-.919-.005.002.4.917zM85.125 349h-1v1h1v-1zm0-35.875v-1h-1v1h1zm92.25-5.125l-.707-.707.707.707zm0-25.375l-.725.689.018.018.018.018.689-.725zm-86.5-21l-.713.701.006.006.006.006.701-.713zm-11.5-17.125l-.919.395.002.005.917-.4zm-3.25-21c0-7.286 1.39-14.107 4.167-20.475l-1.834-.8c-2.89 6.632-4.333 13.727-4.333 21.275h2zm4.167-20.475c2.785-6.39 6.549-11.951 11.29-16.693l-1.414-1.414c-4.925 4.925-8.828 10.697-11.71 17.307l1.834.8zm11.29-16.693c4.827-4.826 10.43-8.631 16.818-11.415l-.8-1.834c-6.612 2.883-12.425 6.828-17.432 11.835l1.414 1.414zm16.818-11.415c6.368-2.776 13.189-4.167 20.475-4.167v-2c-7.548 0-14.643 1.443-21.275 4.333l.8 1.834zm20.475-4.167h82.25v-2h-82.25v2zm81.25-1v35.875h2V169.75h-2zm1 34.875h-82.25v2h82.25v-2zm-82.25 0c-2.625 0-5.092.482-7.39 1.454l.78 1.842c2.035-.861 4.235-1.296 6.61-1.296v-2zm-7.39 1.454a18.94 18.94 0 00-6.067 4.089l1.414 1.414a16.94 16.94 0 015.433-3.661l-.78-1.842zm-6.067 4.089c-1.679 1.679-3 3.663-3.964 5.942l1.842.78c.869-2.055 2.048-3.82 3.536-5.308l-1.414-1.414zm-3.964 5.942c-.972 2.298-1.454 4.765-1.454 7.39h2c0-2.375.435-4.575 1.296-6.61l-1.842-.78zM110 223.5c0 2.626.482 5.129 1.449 7.502l1.852-.754c-.866-2.127-1.301-4.374-1.301-6.748h-2zm1.454 7.515a20.05 20.05 0 003.946 6.049l1.45-1.378a18.03 18.03 0 01-3.554-5.451l-1.842.78zm3.982 6.085a20.05 20.05 0 006.049 3.946l.78-1.842a18.03 18.03 0 01-5.451-3.554l-1.378 1.45zm6.049 3.946c2.298.972 4.765 1.454 7.39 1.454v-2c-2.375 0-4.575-.435-6.61-1.296l-.78 1.842zm7.39 1.454h35.875v-2h-35.875v2zm35.875 0c7.286 0 14.107 1.391 20.475 4.167l.8-1.834c-6.632-2.89-13.727-4.333-21.275-4.333v2zm20.49 4.173c6.464 2.7 12.06 6.46 16.797 11.278l1.426-1.402c-4.93-5.015-10.751-8.922-17.453-11.722l-.77 1.846zm16.809 11.29c4.818 4.737 8.578 10.333 11.278 16.797l1.846-.77c-2.8-6.702-6.707-12.523-11.722-17.453l-1.402 1.426zm11.284 16.812c2.776 6.368 4.167 13.189 4.167 20.475h2c0-7.548-1.443-14.643-4.333-21.275l-1.834.8zm4.167 20.475c0 7.286-1.391 14.107-4.167 20.475l1.834.8c2.89-6.632 4.333-13.727 4.333-21.275h-2zm-4.171 20.485c-2.701 6.384-6.462 11.984-11.286 16.808l1.414 1.414c5.009-5.009 8.915-10.826 11.714-17.442l-1.842-.78zm-11.286 16.808c-4.74 4.739-10.341 8.503-16.813 11.288l.79 1.838c6.694-2.881 12.51-6.785 17.437-11.712l-1.414-1.414zm-16.818 11.29c-6.368 2.776-13.189 4.167-20.475 4.167v2c7.548 0 14.643-1.443 21.275-4.333l-.8-1.834zM164.75 348H85.125v2h79.625v-2zm-78.625 1v-35.875h-2V349h2zm-1-34.875h79.625v-2H85.125v2zm79.625 0c2.625 0 5.092-.482 7.39-1.454l-.78-1.842c-2.035.861-4.235 1.296-6.61 1.296v2zm7.39-1.454c2.279-.964 4.263-2.285 5.942-3.964l-1.414-1.414c-1.488 1.488-3.253 2.667-5.308 3.536l.78 1.842zm5.942-3.964a18.94 18.94 0 004.089-6.067l-1.842-.78a16.94 16.94 0 01-3.661 5.433l1.414 1.414zm4.089-6.067c.972-2.298 1.454-4.765 1.454-7.39h-2c0 2.375-.435 4.575-1.296 6.61l1.842.78zm1.454-7.39c0-2.625-.482-5.092-1.454-7.39l-1.842.78c.861 2.035 1.296 4.235 1.296 6.61h2zm-1.454-7.39a17.58 17.58 0 00-4.107-5.96l-1.378 1.45a15.552 15.552 0 013.643 5.29l1.842-.78zm-4.071-5.924a17.58 17.58 0 00-5.96-4.107l-.78 1.842a15.552 15.552 0 015.29 3.643l1.45-1.378zm-5.96-4.107c-2.298-.972-4.765-1.454-7.39-1.454v2c2.375 0 4.575.435 6.61 1.296l.78-1.842zm-7.39-1.454h-35.875v2h35.875v-2zm-35.875 0c-7.286 0-14.107-1.391-20.475-4.167l-.8 1.834c6.632 2.89 13.727 4.333 21.275 4.333v-2zm-20.475-4.167c-6.392-2.786-11.997-6.551-16.824-11.296l-1.402 1.426c5.006 4.922 10.818 8.823 17.426 11.704l.8-1.834zm-16.812-11.284c-4.745-4.827-8.51-10.432-11.296-16.824l-1.834.8c2.881 6.608 6.782 12.42 11.704 17.426l1.426-1.402zm-11.294-16.819c-2.778-6.454-4.169-13.319-4.169-20.605h-2c0 7.548 1.442 14.683 4.332 21.395l1.837-.79zM405.51 318.75l-.919-.395-.002.005.921.39zm-11.5 17.125l.707.707-.707-.707zm-17.125 11.5l.39.921.005-.002-.395-.919zM336.76 348l-.358.934.004.001.354-.935zm-16.5-10.25l.675-.738-.675-.618-.675.618.675.738zm-56.875 9.625l-.4.917.007.003.008.003.385-.923zm-17.125-11.5l-.713.701.006.006.006.006.701-.713zm-11.5-17.125l-.923.385.003.008.003.007.917-.4zm-4.125-149v-1h-1v1h1zm35.875 0h1v-1h-1v1zm1.375 135.125l-.926.377.005.013.921-.39zm3.75 5.75l-.725.689.018.018.018.018.689-.725zm5.75 3.75l-.39.921.39-.921zm19.625-3.75l-.707-.707.707.707zm3.875-5.75l.921.39.005-.013-.926-.377zm1.375-135.125v-1h-1v1h1zm35.875 0h1v-1h-1v1zm1.375 135.125l-.926.377.005.013.921-.39zm3.75 5.75l-.725.689.018.018.018.018.689-.725zm25.375 0l.707.707-.707-.707zm3.875-5.75l-.914-.406-.003.008-.004.008.921.39zm1.5-135.125v-1h-1v1h1zm35.75 0h1v-1h-1v1zm-1 128c0 7.286-1.391 14.151-4.169 20.605l1.838.79c2.888-6.712 4.331-13.847 4.331-21.395h-2zm-4.171 20.61c-2.701 6.384-6.462 11.984-11.286 16.808l1.414 1.414c5.009-5.009 8.915-10.826 11.714-17.442l-1.842-.78zm-11.286 16.808c-4.74 4.739-10.341 8.503-16.813 11.288l.79 1.838c6.694-2.881 12.51-6.785 17.437-11.712l-1.414-1.414zm-16.808 11.286c-6.37 2.695-13.195 4.046-20.485 4.046v2c7.544 0 14.635-1.399 21.265-4.204l-.78-1.842zM356.01 350.5c-6.547 0-12.844-1.145-18.896-3.435l-.708 1.87c6.281 2.377 12.818 3.565 19.604 3.565v-2zm-18.892-3.434c-5.963-2.287-11.356-5.636-16.183-10.054l-1.35 1.476c5.007 4.582 10.614 8.066 16.817 10.446l.716-1.868zm-17.533-10.054c-4.824 4.416-10.257 7.765-16.304 10.053l.708 1.87c6.287-2.378 11.937-5.863 16.946-10.447l-1.35-1.476zm-16.304 10.053c-6.052 2.29-12.349 3.435-18.896 3.435v2c6.786 0 13.323-1.188 19.604-3.565l-.708-1.87zm-18.896 3.435c-7.29 0-14.158-1.351-20.615-4.048l-.77 1.846c6.71 2.803 13.841 4.202 21.385 4.202v-2zm-20.6-4.042c-6.392-2.786-11.997-6.551-16.824-11.296l-1.402 1.426c5.006 4.922 10.818 8.823 17.426 11.704l.8-1.834zm-16.812-11.284c-4.745-4.827-8.51-10.432-11.296-16.824l-1.834.8c2.881 6.608 6.782 12.42 11.704 17.426l1.426-1.402zm-11.29-16.809c-2.697-6.457-4.048-13.325-4.048-20.615h-2c0 7.544 1.399 14.675 4.202 21.385l1.846-.77zm-4.048-20.615v-128h-2v128h2zm-1-127h35.875v-2h-35.875v2zm34.875-1v128h2v-128h-2zm0 128c0 2.626.482 5.129 1.449 7.502l1.852-.754c-.866-2.127-1.301-4.374-1.301-6.748h-2zm1.454 7.515a20.05 20.05 0 003.946 6.049l1.45-1.378a18.03 18.03 0 01-3.554-5.451l-1.842.78zm3.982 6.085a20.05 20.05 0 006.049 3.946l.78-1.842a18.03 18.03 0 01-5.451-3.554l-1.378 1.45zm6.049 3.946c2.298.972 4.765 1.454 7.39 1.454v-2c-2.375 0-4.575-.435-6.61-1.296l-.78 1.842zm7.39 1.454c2.625 0 5.092-.482 7.39-1.454l-.78-1.842c-2.035.861-4.235 1.296-6.61 1.296v2zm7.39-1.454c2.279-.964 4.263-2.285 5.942-3.964l-1.414-1.414c-1.488 1.488-3.253 2.667-5.308 3.536l.78 1.842zm5.942-3.964a18.94 18.94 0 004.089-6.067l-1.842-.78a16.94 16.94 0 01-3.661 5.433l1.414 1.414zm4.094-6.08c.967-2.373 1.449-4.876 1.449-7.502h-2c0 2.374-.435 4.621-1.301 6.748l1.852.754zm1.449-7.502v-128h-2v128h2zm-1-127h35.875v-2H302.26v2zm34.875-1v128h2v-128h-2zm0 128c0 2.626.482 5.129 1.449 7.502l1.852-.754c-.866-2.127-1.301-4.374-1.301-6.748h-2zm1.454 7.515a20.05 20.05 0 003.946 6.049l1.45-1.378a18.03 18.03 0 01-3.554-5.451l-1.842.78zm3.982 6.085a20.05 20.05 0 006.049 3.946l.78-1.842a18.03 18.03 0 01-5.451-3.554l-1.378 1.45zm6.049 3.946c2.298.972 4.765 1.454 7.39 1.454v-2c-2.375 0-4.575-.435-6.61-1.296l-.78 1.842zm7.39 1.454c2.625 0 5.092-.482 7.39-1.454l-.78-1.842c-2.035.861-4.235 1.296-6.61 1.296v2zm7.39-1.454c2.279-.964 4.263-2.285 5.942-3.964l-1.414-1.414c-1.488 1.488-3.253 2.667-5.308 3.536l.78 1.842zm5.942-3.964a18.94 18.94 0 004.089-6.067l-1.842-.78a16.94 16.94 0 01-3.661 5.433l1.414 1.414zm4.082-6.051a18.343 18.343 0 001.586-7.531h-2c0 2.362-.472 4.599-1.414 6.719l1.828.812zm1.586-7.531v-128h-2v128h2zm-1-127h35.75v-2h-35.75v2zm34.75-1v128h2v-128h-2z"/>
</svg>
